<svg width="31" height="40" viewBox="0 0 31 40" fill="none" xmlns="http://www.w3.org/2000/svg">
<path fill-rule="evenodd" clip-rule="evenodd" d="M2.1572 14.0582C5.43255 3.19465 12.0838 0.159587 15 0C17.977 0.159587 24.7668 3.19465 28.1104 14.0582C31.7323 23.901 30.0736 28.1773 28.8444 31.3465L28.8143 31.4242C27.5824 34.6014 22.5231 38.9973 19.1795 39.5196C16.5046 39.9374 15.2786 40.0129 15 39.9984C14.7271 40.0129 13.5261 39.9374 10.9058 39.5196C7.63048 38.9973 2.67436 34.6014 1.46765 31.4242L1.43816 31.3465C0.233995 28.1773 -1.39078 23.901 2.1572 14.0582ZM9.03047 18.6017C10.9201 13.928 13.7975 12.5865 15 12.5C16.2548 12.5865 19.2573 13.928 21.2291 18.6017C22.4121 21.579 22.5585 24.7466 22.4838 25.9583C22.439 26.8094 21.8475 28.9529 19.8398 30.7185C17.8322 32.4841 15.7768 32.6082 15 32.4495C14.2556 32.6082 12.2858 32.4841 10.3618 30.7185C8.4378 28.9529 7.87092 26.8094 7.82797 25.9583C7.7564 24.7466 7.89669 21.579 9.03047 18.6017Z" fill="#61D39B"/>
</svg>
