<svg width="45" height="45" viewBox="0 0 45 45" fill="none" xmlns="http://www.w3.org/2000/svg">
<path d="M22.4999 44.0999C34.4293 44.0999 44.0999 34.4293 44.0999 22.4999C44.0999 10.5706 34.4293 0.899902 22.4999 0.899902C10.5706 0.899902 0.899902 10.5706 0.899902 22.4999C0.899902 34.4293 10.5706 44.0999 22.4999 44.0999Z" fill="#EA4C89"/>
<path fill-rule="evenodd" clip-rule="evenodd" d="M22.5 0C10.0786 0 0 10.0786 0 22.5C0 34.9213 10.0786 45 22.5 45C34.897 45 45 34.9213 45 22.5C45 10.0786 34.897 0 22.5 0ZM37.3617 10.3715C40.0461 13.6415 41.6567 17.8146 41.7056 22.3292C41.071 22.2071 34.7261 20.9138 28.3324 21.7191C28.186 21.4019 28.064 21.0602 27.9176 20.7185C27.5271 19.7912 27.0878 18.8395 26.6486 17.9366C33.7256 15.057 36.9468 10.9084 37.3617 10.3715ZM22.5 3.31887C27.3807 3.31887 31.8465 5.14913 35.2386 8.15076C34.897 8.63883 31.9929 12.519 25.16 15.0813C22.0119 9.29772 18.5222 4.56345 17.9854 3.83134C19.4251 3.4897 20.9382 3.31887 22.5 3.31887ZM14.3249 5.12473C14.8373 5.80801 18.2538 10.5667 21.4506 16.2283C12.4702 18.6198 4.53906 18.5711 3.68492 18.5711C4.92948 12.6166 8.95608 7.66269 14.3249 5.12473ZM3.27006 22.5244C3.27006 22.3292 3.27006 22.134 3.27006 21.9387C4.09978 21.9631 13.4219 22.0851 23.0125 19.2055C23.5737 20.2793 24.0862 21.3774 24.5743 22.4756C24.3302 22.5488 24.0618 22.622 23.8178 22.6952C13.91 25.8921 8.63883 34.6285 8.19958 35.3606C5.14913 31.9685 3.27006 27.4539 3.27006 22.5244ZM22.5 41.7299C18.0586 41.7299 13.9588 40.2169 10.7131 37.679C11.0548 36.9713 14.9593 29.455 25.7944 25.6725C25.8433 25.6481 25.8677 25.6481 25.9165 25.6236C28.6253 32.6274 29.7234 38.5087 30.0163 40.1925C27.6979 41.193 25.16 41.7299 22.5 41.7299ZM33.2132 38.4355C33.0179 37.2641 31.993 31.6513 29.4794 24.7451C35.5071 23.7934 40.7782 25.3552 41.4371 25.5749C40.6074 30.9192 37.5325 35.5315 33.2132 38.4355Z" fill="#C32361"/>
</svg>
