<svg width="27" height="40" viewBox="0 0 27 40" fill="none" xmlns="http://www.w3.org/2000/svg">
<path d="M27 6.66667C27 2.98477 24.0152 0 20.3333 0H7C3.3181 0 0.333336 2.98477 0.333336 6.66667C0.333336 10.3486 3.3181 13.3333 7 13.3333H20.3333C24.0152 13.3333 27 10.3486 27 6.66667Z" fill="#F2321E"/>
<path d="M27 6.66667C27 2.98477 24.0152 0 20.3333 0H13.6667V13.3333H20.3333C24.0152 13.3333 27 10.3486 27 6.66667Z" fill="#FF6C5C"/>
<ellipse rx="6.66667" ry="6.66667" transform="matrix(-1 0 0 1 20.3333 19.9999)" fill="#1ABDFF"/>
<path fill-rule="evenodd" clip-rule="evenodd" d="M6.99984 40.0001C3.31794 40.0001 0.333174 37.0153 0.333174 33.3334C0.333174 29.6515 3.31794 26.6667 6.99984 26.6667H13.6665V33.3334C13.6665 33.3334 13.6665 33.3334 13.6665 33.3334C13.6665 37.0153 10.6817 40.0001 6.99984 40.0001Z" fill="#3ED67E"/>
<path fill-rule="evenodd" clip-rule="evenodd" d="M6.86378 26.6666C3.18188 26.6666 0.197115 23.6818 0.197115 19.9999C0.197115 16.318 3.18188 13.3333 6.86378 13.3333C6.86777 13.3333 6.87175 13.3333 6.87574 13.3333H13.6665V26.6666H6.86378L6.86378 26.6666Z" fill="#943FFF"/>
</svg>
