<svg width="40" height="32" viewBox="0 0 40 32" fill="none" xmlns="http://www.w3.org/2000/svg">
<g clip-path="url(#clip0)">
<path fill-rule="evenodd" clip-rule="evenodd" d="M4.26162 22.5811L0.11377 17.9307L12.8101 13.2981L14.7862 18.7409L4.26162 22.5811Z" fill="#F89920"/>
<path fill-rule="evenodd" clip-rule="evenodd" d="M4.23126 22.4974L4.03564 28.7327L16.7319 24.1001L14.7558 18.6572L4.23126 22.4974Z" fill="#FFBE22"/>
<path fill-rule="evenodd" clip-rule="evenodd" d="M39.5126 9.72831C41.3242 14.9899 35.487 21.9034 26.4072 25.2164C17.3274 28.5295 8.42294 26.9949 6.43701 21.7969L39.5126 9.72831Z" fill="#F0670A"/>
<path fill-rule="evenodd" clip-rule="evenodd" d="M39.5131 9.72826C37.5401 4.5168 28.6263 2.97542 19.5366 6.29204C10.4469 9.60866 4.60683 16.5334 6.43698 21.797L39.5131 9.72826Z" fill="#FFD00E"/>
<path fill-rule="evenodd" clip-rule="evenodd" d="M39.5116 9.72856C40.6409 13.249 34.3038 18.7315 25.2519 22.0343C16.2 25.3372 7.83017 25.2209 6.43799 21.7964L39.5116 9.72856Z" fill="#F89920"/>
<path fill-rule="evenodd" clip-rule="evenodd" d="M39.5123 9.72841C38.141 6.28754 29.7586 6.16563 20.6917 9.47393C11.6248 12.7822 5.28169 18.2772 6.43747 21.7967L39.5123 9.72841Z" fill="#FFBE22"/>
<path d="M24.2538 4.95282C23.3898 1.95817 22.4066 0.296886 21.2895 0.328821C19.1286 0.390599 18.402 7.25873 19.1013 16.0597C19.8081 24.9537 21.6412 31.6351 23.9268 31.5749C25.2898 31.539 26.0573 29.3532 26.3266 25.5581C26.3321 25.4805 26.246 25.5343 26.251 25.4554C26.251 25.4554 26.2399 25.3168 26.1887 25.3135C26.0921 25.3072 25.8989 25.2947 25.8989 25.2947C25.6614 28.9792 24.9421 31.1024 23.9151 31.1295C22.0368 31.179 20.2234 24.5696 19.5444 16.0243C18.8766 7.61979 19.5956 0.822982 21.3022 0.774193C22.1099 0.7511 23.0148 2.28076 23.8158 5.03884C23.8158 5.03884 24.2542 4.95435 24.2538 4.95282Z" fill="#F0670A"/>
<path d="M13.5467 2.81592C11.7061 3.95259 14.5025 10.2647 19.4976 17.536C24.5456 24.8843 29.4656 29.7517 31.4149 28.5539C32.5043 27.8844 32.1985 25.8523 30.7957 22.7844C30.7446 22.6725 30.6127 22.6234 30.5011 22.6747C30.3896 22.726 30.3406 22.8582 30.3917 22.97C31.6959 25.8223 31.9764 27.6863 31.1826 28.174C29.5806 29.1584 24.7137 24.3434 19.8636 17.2833C15.0935 10.3395 12.3262 4.09296 13.7798 3.19528C14.5518 2.71853 16.3877 3.86871 18.8136 6.35343C18.8406 6.38107 18.996 6.54228 19.0305 6.5528C19.1057 6.57575 19.0677 6.41581 19.1279 6.35681C19.2156 6.27074 19.2171 6.1297 19.1312 6.04177C16.5396 3.38735 14.5946 2.16879 13.5467 2.81592Z" fill="#F0670A"/>
</g>
<defs>
<clipPath id="clip0">
<rect width="40" height="31.3669" fill="white" transform="translate(0 0.239258)"/>
</clipPath>
</defs>
</svg>
